<svg width="1000" height="832" viewBox="0 0 1000 832" fill="none" xmlns="http://www.w3.org/2000/svg">
<g clip-path="url(#clip0_1_782)">
<path d="M190.712 567.648C189.434 568.204 188.002 568.386 186.61 568.167C185.217 567.949 183.931 567.341 182.925 566.426C181.92 565.511 181.244 564.333 180.988 563.052C180.733 561.771 180.912 560.448 181.499 559.264C181.393 558.615 181.317 558.149 181.211 557.499C181.096 557.394 180.98 557.288 180.864 557.183C169.179 546.571 149.383 554.302 149.421 569.424C149.454 582.846 148.089 596.829 151.956 609.543C153.668 615.163 156.424 620.465 160.102 625.216C136.976 605.548 118.708 581.525 106.535 554.776C103.488 548.061 100.851 541.194 98.6355 534.208C96.8247 528.478 95.291 522.688 94.0342 516.836C87.2522 485.072 88.7397 452.278 98.3746 421.146C105.928 412.455 110.41 401.837 111.216 390.725C111.52 386.725 111.195 382.705 110.249 378.792C109.206 379.35 108.122 379.866 107.049 380.358C106.712 380.507 106.358 380.663 106.022 380.812L105.895 380.868C104.704 381.385 103.377 381.574 102.073 381.413C100.768 381.251 99.5426 380.745 98.5429 379.956C97.5432 379.167 96.8121 378.129 96.4378 376.965C96.0635 375.802 96.0618 374.564 96.433 373.4C96.6645 372.676 96.8963 371.952 97.1286 371.228C97.4743 370.114 97.8456 369.011 98.1913 367.898C98.2389 367.787 98.2795 367.673 98.313 367.557C98.7144 366.286 99.1231 365.031 99.5246 363.759C97.0198 362.171 94.1508 361.137 91.1413 360.739C80.7582 359.448 70.6641 367.002 67.7919 376.28C64.9016 385.564 68.1855 395.762 74.2239 403.645C79.3881 410.395 86.389 415.712 93.7275 420.507C93.517 421.215 93.281 421.913 93.0706 422.621C89.2451 435.61 86.8096 448.914 85.7989 462.341C81.6318 449.34 74.1765 437.438 64.0463 427.612C54.2113 418.607 40.8734 412.97 28.5212 406.668C13.6842 399.098 -3.98932 411.706 0.799318 426.703C0.845691 426.848 0.892425 426.993 0.939532 427.138C2.42333 427.3 3.89917 427.51 5.36698 427.768C7.21504 428.101 8.91079 428.941 10.2321 430.178C11.5534 431.415 12.4385 432.991 12.7716 434.7C13.1047 436.409 12.8702 438.17 12.0987 439.754C11.3273 441.338 10.055 442.67 8.44845 443.575L8.28394 443.668C10.5201 447.493 13.0685 451.156 15.907 454.624C23.9454 464.264 34.057 472.268 45.608 478.136C57.1591 484.003 69.9004 487.608 83.0332 488.723C83.8902 488.785 84.7291 488.853 85.5785 488.898C86.6973 507.097 90.3781 525.084 96.5283 542.407C100.191 552.614 104.744 562.531 110.141 572.061L109.927 571.732C102.629 561.634 91.7749 554.167 79.1971 550.593C60.5857 545.438 39.2598 549.116 20.4895 546.441C11.4541 545.153 4.61228 553.952 9.35413 561.159C9.4298 561.274 9.50582 561.389 9.58219 561.503C12.1896 561.481 14.7959 561.609 17.3861 561.886C18.8699 562.048 20.3458 562.258 21.8135 562.516C23.6616 562.85 25.3574 563.69 26.6787 564.927C28 566.164 28.8852 567.74 29.2183 569.449C29.5514 571.157 29.3168 572.919 28.5454 574.503C27.774 576.087 26.5016 577.418 24.8951 578.324L24.7304 578.417C24.6113 578.482 24.5103 578.541 24.3914 578.606C31.9974 585.52 40.8375 591.175 50.5245 595.324C62.4157 600.283 75.2801 602.95 88.3289 603.162C101.378 603.374 114.336 601.127 126.41 596.558L126.428 596.551C135.632 608.387 146.146 619.308 157.8 629.14L208.283 609.69C208.23 609.103 208.151 608.507 208.079 607.927C203.529 609.998 198.721 611.548 193.763 612.541C195.587 606.861 197.397 601.148 199.222 595.467C199.27 595.356 199.31 595.242 199.344 595.126C200.261 592.226 201.203 589.335 202.12 586.434L202.12 586.431C199.208 579.745 195.374 573.432 190.714 567.648L190.712 567.648ZM85.3764 485.077L85.388 485.033L85.3916 485.11L85.3764 485.077ZM116.321 582.319L115.478 581.586C115.201 580.928 114.907 580.277 114.586 579.617C114.503 579.434 114.383 579.264 114.3 579.081C114.985 580.169 115.651 581.264 116.354 582.346L116.321 582.319Z" fill="#2540BB"/>
<path d="M653.972 247.804C652.091 254.797 651.194 261.985 651.304 269.189L651.305 269.192C653.364 271.543 655.443 273.875 657.502 276.225C657.581 276.32 657.666 276.411 657.757 276.496C661.816 281.089 665.876 285.717 669.935 290.309C664.944 291.155 659.86 291.435 654.796 291.141C654.972 291.701 655.149 292.28 655.345 292.841H710.059C716.699 279.626 721.832 265.811 725.375 251.618H725.395C738.445 251.542 751.341 249.009 763.293 244.175C775.244 239.34 785.998 232.306 794.895 223.504C802.098 216.233 807.889 207.872 812.016 198.789C811.879 198.771 811.761 198.753 811.624 198.735L811.433 198.708C809.572 198.443 807.841 197.667 806.467 196.48C805.092 195.293 804.139 193.751 803.732 192.056C803.325 190.361 803.482 188.592 804.184 186.981C804.886 185.37 806.099 183.992 807.665 183.027C808.91 182.268 810.184 181.549 811.486 180.872C813.76 179.696 816.112 178.651 818.526 177.744C818.549 177.611 818.571 177.478 818.593 177.345C819.954 169.01 809.961 163.324 802.163 167.724C785.963 176.865 764.748 181.053 749.732 192.425C739.622 200.194 732.729 210.942 730.219 222.853L730.16 223.233C731.154 212.521 731.206 201.753 730.317 191.033C728.746 172.863 724.62 154.958 718.041 137.77C718.805 137.426 719.551 137.065 720.316 136.703C731.966 131.005 742.215 123.15 750.419 113.63C758.622 104.11 764.604 93.13 767.989 81.3785C769.158 77.1691 769.977 72.8838 770.441 68.5598L770.25 68.5327C768.389 68.2682 766.658 67.4915 765.284 66.3045C763.91 65.1175 762.957 63.5755 762.549 61.8805C762.142 60.1855 762.299 58.4167 763.001 56.8056C763.703 55.1946 764.916 53.8166 766.482 52.8521C767.727 52.0929 769.001 51.3745 770.304 50.6969C770.286 50.5465 770.269 50.3961 770.251 50.2457C768.397 34.7061 746.817 29.3562 736.293 41.6147C727.532 51.8204 717.583 61.7628 712.275 73.568C707.038 86.2352 705.137 99.8676 706.73 113.344C700.181 101.315 692.37 89.9059 683.408 79.2813C682.918 78.7026 682.408 78.1422 681.917 77.5635C686.683 70.5306 690.919 63.1359 692.86 55.0723C695.135 45.6528 693.9 35.0758 687.35 27.5367C680.819 19.9974 668.347 16.6165 659.306 21.498C656.696 22.9354 654.481 24.9091 652.835 27.2653C653.737 28.2959 654.639 29.3084 655.541 30.3389C655.62 30.4338 655.705 30.5244 655.796 30.6103C656.58 31.5142 657.384 32.4001 658.169 33.3041C658.686 33.8894 659.203 34.4751 659.719 35.0613C660.549 36.0034 661.065 37.1464 661.206 38.3527C661.347 39.559 661.107 40.7772 660.515 41.8607C659.922 42.9441 659.003 43.8465 657.867 44.4594C656.731 45.0723 655.427 45.3694 654.113 45.315L653.972 45.3092C653.599 45.291 653.207 45.2729 652.835 45.2549C651.638 45.1826 650.422 45.0923 649.226 44.9476C649.991 48.8948 651.372 52.7192 653.325 56.3018C658.717 66.2681 667.293 74.4712 677.897 79.8057C699.808 105.104 714.896 134.834 721.923 166.553C723.218 172.393 724.225 178.281 724.944 184.217C725.822 191.451 726.26 198.724 726.258 206.003C726.214 235.01 719.405 263.67 706.294 290.038C707.7 284.347 708.025 278.475 707.255 272.682C705.505 259.576 698.397 247.159 692.815 234.763C686.525 220.798 665.026 220.701 658.683 234.647C658.62 234.785 658.557 234.923 658.495 235.062C658.669 235.699 658.794 236.156 658.968 236.792C660.005 237.677 660.722 238.833 661.023 240.106C661.323 241.379 661.192 242.706 660.647 243.908C660.102 245.109 659.17 246.127 657.976 246.824C656.782 247.521 655.385 247.862 653.974 247.803L653.972 247.804ZM716.629 134.208L716.6 134.136L716.629 134.172V134.208ZM728.729 234.931C728.925 233.683 729.082 232.436 729.258 231.188C729.258 231.387 729.219 231.586 729.219 231.785C729.199 232.508 729.199 233.213 729.219 233.918L728.748 234.895L728.729 234.931Z" fill="#2540BB"/>
<path d="M598.849 558.638H431.458C429.09 558.641 426.82 559.511 425.148 561.057C423.475 562.603 422.537 564.698 422.54 566.881V810.666H607.79V566.881C607.79 565.798 607.559 564.726 607.11 563.726C606.661 562.725 606.003 561.816 605.172 561.051C604.342 560.285 603.356 559.678 602.271 559.264C601.186 558.85 600.023 558.637 598.849 558.638ZM515.716 697.154C510.482 697.131 505.468 695.204 501.767 691.792C498.065 688.379 495.975 683.757 495.95 678.931V650.812C495.95 645.979 498.033 641.344 501.74 637.927C505.446 634.509 510.474 632.589 515.716 632.589C520.959 632.589 525.986 634.509 529.693 637.927C533.4 641.344 535.482 645.979 535.482 650.812V678.931C535.458 683.757 533.368 688.379 529.666 691.792C525.965 695.204 520.951 697.131 515.716 697.154Z" fill="#E6E6E6"/>
<path d="M421.965 802.868V826.389C421.968 827.607 422.494 828.775 423.429 829.637C424.364 830.499 425.631 830.984 426.953 830.987H603.377C604.697 830.981 605.962 830.494 606.896 829.633C607.83 828.772 608.357 827.606 608.364 826.389V802.868L421.965 802.868Z" fill="#CCCCCC"/>
<path d="M876.033 178.183H160.502C154.354 178.192 148.461 180.448 144.114 184.455C139.767 188.463 137.321 193.896 137.311 199.564V644.713C137.317 650.382 139.762 655.817 144.11 659.825C148.458 663.833 154.353 666.088 160.502 666.093H876.033C882.182 666.088 888.077 663.833 892.425 659.825C896.773 655.817 899.218 650.382 899.224 644.713V199.564C899.214 193.896 896.768 188.463 892.421 184.455C888.074 180.448 882.181 178.192 876.033 178.183Z" fill="#E6E6E6"/>
<path d="M870.058 193.62H166.482C163.19 193.627 160.035 194.838 157.709 196.987C155.384 199.136 154.078 202.047 154.078 205.083V639.195C154.081 642.227 155.389 645.134 157.715 647.278C160.04 649.422 163.193 650.628 166.482 650.631H870.058C873.347 650.628 876.5 649.422 878.825 647.278C881.151 645.134 882.459 642.227 882.463 639.195V205.083C882.463 202.047 881.157 199.136 878.831 196.987C876.506 194.838 873.351 193.627 870.058 193.62Z" fill="white"/>
<path d="M886.095 265.096V642.948C831.959 657.496 774.156 655.387 721.437 636.939C668.719 618.492 623.954 584.712 593.922 540.712C563.89 496.713 550.225 444.89 554.996 393.09C559.767 341.29 683.788 226.701 721.437 188H886.095C889.387 188.007 883.769 245.851 886.095 248C888.42 250.149 886.094 262.06 886.095 265.096Z" fill="#E6E6E6"/>
<path d="M834.693 253.437H176.355C175.67 253.424 175.019 253.164 174.54 252.713C174.061 252.261 173.792 251.655 173.792 251.024C173.792 250.392 174.061 249.786 174.54 249.335C175.019 248.884 175.67 248.624 176.355 248.61H834.693C835.378 248.624 836.029 248.884 836.508 249.335C836.988 249.786 837.256 250.392 837.256 251.024C837.256 251.655 836.988 252.261 836.508 252.713C836.029 253.164 835.378 253.424 834.693 253.437Z" fill="#CACACA"/>
<path d="M221.169 236.287C229.643 236.287 236.512 229.812 236.512 221.826C236.512 213.84 229.643 207.366 221.169 207.366C212.695 207.366 205.826 213.84 205.826 221.826C205.826 229.812 212.695 236.287 221.169 236.287Z" fill="#3F3D56"/>
<path d="M274.172 236.287C282.645 236.287 289.514 229.812 289.514 221.826C289.514 213.84 282.645 207.366 274.172 207.366C265.698 207.366 258.829 213.84 258.829 221.826C258.829 229.812 265.698 236.287 274.172 236.287Z" fill="#3F3D56"/>
<path d="M327.174 236.287C335.648 236.287 342.517 229.812 342.517 221.826C342.517 213.84 335.648 207.366 327.174 207.366C318.701 207.366 311.831 213.84 311.831 221.826C311.831 229.812 318.701 236.287 327.174 236.287Z" fill="#3F3D56"/>
<path d="M802.781 210.95H765.131C764.384 210.964 763.674 211.247 763.151 211.738C762.629 212.23 762.336 212.89 762.336 213.578C762.336 214.267 762.629 214.927 763.151 215.419C763.674 215.91 764.384 216.193 765.131 216.207H802.781C803.527 216.193 804.238 215.91 804.76 215.419C805.283 214.927 805.575 214.267 805.575 213.578C805.575 212.89 805.283 212.23 804.76 211.738C804.238 211.247 803.527 210.964 802.781 210.95Z" fill="#3F3D56"/>
<path d="M802.781 220.816H765.131C764.384 220.829 763.674 221.112 763.151 221.604C762.629 222.095 762.336 222.756 762.336 223.444C762.336 224.132 762.629 224.793 763.151 225.284C763.674 225.776 764.384 226.059 765.131 226.072H802.781C803.527 226.059 804.238 225.776 804.76 225.284C805.283 224.793 805.575 224.132 805.575 223.444C805.575 222.756 805.283 222.095 804.76 221.604C804.238 221.112 803.527 220.829 802.781 220.816Z" fill="#3F3D56"/>
<path d="M802.781 230.668H765.131C764.384 230.682 763.674 230.965 763.151 231.456C762.629 231.948 762.336 232.609 762.336 233.297C762.336 233.985 762.629 234.646 763.151 235.137C763.674 235.628 764.384 235.911 765.131 235.925H802.781C803.527 235.911 804.238 235.628 804.76 235.137C805.283 234.646 805.575 233.985 805.575 233.297C805.575 232.609 805.283 231.948 804.76 231.456C804.238 230.965 803.527 230.682 802.781 230.668Z" fill="#3F3D56"/>
<path d="M452.098 86.5455C454.416 82.0387 443.672 72.8656 428.101 66.0568C412.529 59.2479 398.026 57.3816 395.708 61.8884C393.389 66.3952 404.133 75.5684 419.705 82.3772C435.276 89.1861 449.779 91.0523 452.098 86.5455Z" fill="#2F2E41"/>
<path d="M580.612 132.965C584.761 129.762 579.155 117.291 568.091 105.108C557.027 92.9255 544.695 85.6454 540.547 88.8475C536.398 92.0496 542.005 104.521 553.068 116.704C564.132 128.887 576.464 136.167 580.612 132.965Z" fill="#2F2E41"/>
<path d="M494.198 158.454C528.667 158.454 556.609 132.693 556.609 100.915C556.609 69.1377 528.667 43.3768 494.198 43.3768C459.73 43.3768 431.787 69.1377 431.787 100.915C431.787 132.693 459.73 158.454 494.198 158.454Z" fill="#2F2E41"/>
<path d="M520.614 146.072H501.654V177.391H520.614V146.072Z" fill="#2F2E41"/>
<path d="M482.694 146.072H463.734V177.391H482.694V146.072Z" fill="#2F2E41"/>
<path d="M504.814 183.217C513.54 183.217 520.614 180.772 520.614 177.755C520.614 174.738 513.54 172.292 504.814 172.292C496.088 172.292 489.014 174.738 489.014 177.755C489.014 180.772 496.088 183.217 504.814 183.217Z" fill="#2F2E41"/>
<path d="M466.894 182.489C475.62 182.489 482.694 180.043 482.694 177.026C482.694 174.01 475.62 171.564 466.894 171.564C458.167 171.564 451.093 174.01 451.093 177.026C451.093 180.043 458.167 182.489 466.894 182.489Z" fill="#2F2E41"/>
<path d="M474.602 28.5876C480.174 7.89669 504.774 -4.27946 529.546 1.3914C554.318 7.06225 569.882 28.4328 564.309 49.1237C558.736 69.8146 540.247 69.8814 515.475 64.2105C490.703 58.5396 469.029 49.2785 474.602 28.5876Z" fill="#E6E6E6"/>
<path d="M484.868 107.958C496.359 107.958 505.675 99.3689 505.675 88.7743C505.675 78.1796 496.359 69.5909 484.868 69.5909C473.376 69.5909 464.06 78.1796 464.06 88.7743C464.06 99.3689 473.376 107.958 484.868 107.958Z" fill="white"/>
<path d="M483.561 102.989C487.392 102.989 490.497 100.126 490.497 96.5942C490.497 93.0627 487.392 90.1998 483.561 90.1998C479.731 90.1998 476.625 93.0627 476.625 96.5942C476.625 100.126 479.731 102.989 483.561 102.989Z" fill="#3F3D56"/>
<path d="M511.307 123.506C512.679 130.455 494.295 142.349 486.757 143.614C483.138 144.222 479.405 143.479 476.379 141.549C473.354 139.619 471.284 136.66 470.625 133.323L470.621 133.298C469.256 126.348 475.084 123.888 482.623 122.63C490.162 121.372 509.942 116.556 511.307 123.506Z" fill="white"/>
<path d="M732.383 526.567C742.886 513.969 747.923 501.293 743.633 498.253C739.344 495.213 727.352 502.961 716.849 515.559C706.346 528.156 701.309 540.833 705.599 543.873C709.889 546.912 721.88 539.164 732.383 526.567Z" fill="#2F2E41"/>
<path d="M789.548 568.611C824.017 568.611 851.959 542.85 851.959 511.072C851.959 479.295 824.017 453.534 789.548 453.534C755.08 453.534 727.137 479.295 727.137 511.072C727.137 542.85 755.08 568.611 789.548 568.611Z" fill="#2F2E41"/>
<path d="M817.989 556.229H799.029V587.548H817.989V556.229Z" fill="#2F2E41"/>
<path d="M780.068 556.229H761.108V587.548H780.068V556.229Z" fill="#2F2E41"/>
<path d="M802.189 593.374C810.915 593.374 817.989 590.929 817.989 587.912C817.989 584.895 810.915 582.449 802.189 582.449C793.462 582.449 786.388 584.895 786.388 587.912C786.388 590.929 793.462 593.374 802.189 593.374Z" fill="#2F2E41"/>
<path d="M764.268 592.646C772.994 592.646 780.068 590.2 780.068 587.183C780.068 584.167 772.994 581.721 764.268 581.721C755.542 581.721 748.468 584.167 748.468 587.183C748.468 590.2 755.542 592.646 764.268 592.646Z" fill="#2F2E41"/>
<path d="M787.968 516.171C799.749 516.171 809.299 507.366 809.299 496.506C809.299 485.645 799.749 476.84 787.968 476.84C776.188 476.84 766.638 485.645 766.638 496.506C766.638 507.366 776.188 516.171 787.968 516.171Z" fill="white"/>
<path d="M786.519 512.413C790.446 512.413 793.629 509.478 793.629 505.858C793.629 502.237 790.446 499.302 786.519 499.302C782.592 499.302 779.409 502.237 779.409 505.858C779.409 509.478 782.592 512.413 786.519 512.413Z" fill="#3F3D56"/>
<path d="M850.089 457.563C855.128 436.756 839.02 415.732 814.109 410.603C789.198 405.475 764.919 418.186 759.879 438.992C754.84 459.799 771.349 467.473 796.26 472.601C821.171 477.729 845.05 478.37 850.089 457.563Z" fill="#2540BB"/>
<path d="M863.316 561.029C868.184 558.852 866.035 545.498 858.514 531.202C850.994 516.905 840.951 507.08 836.083 509.257C831.215 511.433 833.365 524.787 840.885 539.084C848.405 553.38 858.448 563.205 863.316 561.029Z" fill="#2F2E41"/>
<path d="M820.204 531.83C820.204 537.461 804.476 548.582 787.024 548.582C769.571 548.582 753.208 532.727 753.208 527.096C753.208 521.464 769.572 528.188 787.024 528.188C804.476 528.188 820.204 526.198 820.204 531.83Z" fill="white"/>
<path d="M742.759 762.333C777.228 762.333 805.17 736.572 805.17 704.795C805.17 673.017 777.228 647.256 742.759 647.256C708.29 647.256 680.348 673.017 680.348 704.795C680.348 736.572 708.29 762.333 742.759 762.333Z" fill="#2F2E41"/>
<path d="M733.279 749.952H714.319V781.27H733.279V749.952Z" fill="#2F2E41"/>
<path d="M771.199 749.952H752.239V781.27H771.199V749.952Z" fill="#2F2E41"/>
<path d="M742.957 791.862C744.354 789.134 739.09 784.138 731.199 780.703C723.309 777.267 715.779 776.694 714.382 779.422C712.985 782.15 718.249 787.147 726.14 790.582C734.03 794.017 741.56 794.59 742.957 791.862Z" fill="#2F2E41"/>
<path d="M781.234 790.385C782.463 787.589 776.903 782.873 768.815 779.851C760.728 776.83 753.176 776.647 751.947 779.443C750.718 782.239 756.277 786.955 764.365 789.976C772.452 792.998 780.005 793.181 781.234 790.385Z" fill="#2F2E41"/>
<path d="M682.218 651.285C677.179 630.479 693.288 609.454 718.199 604.326C743.11 599.198 767.389 611.908 772.428 632.715C777.468 653.522 760.958 661.196 736.048 666.324C711.137 671.452 687.258 672.092 682.218 651.285Z" fill="#2540BB"/>
<path d="M816.948 681.177C823.178 664.51 823.628 649.537 817.953 647.734C812.277 645.93 802.626 657.98 796.395 674.647C790.165 691.315 789.715 706.288 795.39 708.091C801.066 709.894 810.717 697.845 816.948 681.177Z" fill="#2F2E41"/>
<path d="M692.454 699.157C696.7 695.245 689.185 681.964 675.669 669.493C662.153 657.023 647.754 650.085 643.507 653.997C639.261 657.908 646.775 671.189 660.292 683.66C673.808 696.13 688.207 703.068 692.454 699.157Z" fill="#2F2E41"/>
<path d="M270.449 806.711C304.918 806.711 332.86 780.95 332.86 749.172C332.86 717.395 304.918 691.634 270.449 691.634C235.98 691.634 208.038 717.395 208.038 749.172C208.038 780.95 235.98 806.711 270.449 806.711Z" fill="#2F2E41"/>
<path d="M260.969 794.329H242.009V825.648H260.969V794.329Z" fill="#2F2E41"/>
<path d="M298.889 794.329H279.929V825.648H298.889V794.329Z" fill="#2F2E41"/>
<path d="M257.809 831.475C266.535 831.475 273.609 829.029 273.609 826.012C273.609 822.995 266.535 820.55 257.809 820.55C249.083 820.55 242.009 822.995 242.009 826.012C242.009 829.029 249.083 831.475 257.809 831.475Z" fill="#2F2E41"/>
<path d="M295.729 830.746C304.456 830.746 311.53 828.3 311.53 825.284C311.53 822.267 304.456 819.821 295.729 819.821C287.003 819.821 279.929 822.267 279.929 825.284C279.929 828.3 287.003 830.746 295.729 830.746Z" fill="#2F2E41"/>
<path d="M209.908 695.663C204.869 674.856 220.978 653.832 245.889 648.704C270.8 643.576 295.079 656.286 300.118 677.093C305.158 697.9 288.648 705.574 263.738 710.702C238.827 715.83 214.948 716.47 209.908 695.663Z" fill="#3F3D56"/>
<path d="M350.476 763.937C353.283 759.044 341.856 748.396 324.953 740.153C308.05 731.909 292.072 729.193 289.265 734.085C286.458 738.977 297.885 749.625 314.788 757.869C331.691 766.112 347.669 768.829 350.476 763.937Z" fill="#2F2E41"/>
<path d="M196.627 485.572C208.119 485.572 217.435 476.983 217.435 466.388C217.435 455.794 208.119 447.205 196.627 447.205C185.135 447.205 175.819 455.794 175.819 466.388C175.819 476.983 185.135 485.572 196.627 485.572Z" fill="white"/>
<path d="M183.574 506.356C183.248 508.008 183.278 509.703 183.662 511.345C184.046 512.987 184.778 514.542 185.814 515.923C186.851 517.305 188.173 518.484 189.704 519.394C191.234 520.304 192.945 520.928 194.737 521.228C196.529 521.529 198.368 521.502 200.149 521.147C201.93 520.793 203.617 520.118 205.115 519.163C206.613 518.207 207.892 516.989 208.88 515.577C209.867 514.166 210.543 512.589 210.869 510.937L210.874 510.912C212.239 503.962 206.41 501.502 198.871 500.244C191.333 498.986 184.939 499.406 183.574 506.356Z" fill="white"/>
<path d="M998.275 830.978L32.055 831.388C31.828 831.389 31.603 831.348 31.3931 831.269C31.1832 831.189 30.9924 831.072 30.8316 830.924C30.6709 830.776 30.5433 830.601 30.4563 830.408C30.3693 830.214 30.3245 830.007 30.3245 829.798C30.3245 829.588 30.3693 829.381 30.4563 829.188C30.5433 828.995 30.6709 828.819 30.8316 828.671C30.9924 828.523 31.1832 828.406 31.3931 828.327C31.603 828.247 31.828 828.206 32.055 828.207L998.275 827.796C998.731 827.798 999.169 827.966 999.491 828.264C999.814 828.562 999.995 828.966 999.995 829.387C999.995 829.808 999.814 830.212 999.491 830.51C999.169 830.809 998.731 830.977 998.275 830.978Z" fill="#CACACA"/>
<path d="M882 367.333H860.333V389H882V367.333Z" fill="#2540BB"/>
<path d="M813.682 313.203C818.81 313.203 823.63 314.194 828.143 316.177C832.655 318.091 836.585 320.758 839.937 324.176C843.286 327.526 845.918 331.458 847.833 335.97C849.815 340.414 850.807 345.2 850.807 350.328C850.807 355.456 849.815 360.276 847.833 364.788C845.918 369.301 843.286 373.266 839.937 376.685C836.585 380.035 832.655 382.701 828.143 384.684C823.63 386.598 818.81 387.556 813.682 387.556H792.146V313.203H813.682ZM813.682 365.814C815.869 365.814 817.92 365.438 819.836 364.686C821.817 363.865 823.528 362.771 824.963 361.404C826.399 359.968 827.527 358.293 828.348 356.379C829.168 354.464 829.578 352.413 829.578 350.225C829.578 348.038 829.168 345.986 828.348 344.072C827.527 342.158 826.399 340.517 824.963 339.149C823.528 337.714 821.817 336.585 819.836 335.765C817.92 334.945 815.869 334.534 813.682 334.534V365.814Z" fill="#2540BB"/>
<path d="M749.995 311.767C755.328 311.767 760.319 312.793 764.968 314.844C769.686 316.826 773.788 319.561 777.275 323.048C780.762 326.535 783.496 330.637 785.479 335.355C787.531 340.004 788.556 344.995 788.556 350.328C788.556 355.661 787.531 360.686 785.479 365.404C783.496 370.053 780.762 374.121 777.275 377.608C773.788 381.095 769.686 383.864 764.968 385.915C760.319 387.897 755.328 388.889 749.995 388.889C744.662 388.889 739.637 387.897 734.92 385.915C730.27 383.864 726.202 381.095 722.715 377.608C719.229 374.121 716.46 370.053 714.408 365.404C712.425 360.686 711.434 355.661 711.434 350.328C711.434 344.995 712.425 340.004 714.408 335.355C716.46 330.637 719.229 326.535 722.715 323.048C726.202 319.561 730.27 316.826 734.92 314.844C739.637 312.793 744.662 311.767 749.995 311.767ZM766.507 350.225C766.507 347.969 766.062 345.85 765.173 343.867C764.353 341.884 763.225 340.175 761.789 338.739C760.353 337.303 758.645 336.175 756.661 335.355C754.678 334.466 752.559 334.022 750.303 334.022C748.047 334.022 745.928 334.466 743.944 335.355C741.961 336.175 740.218 337.303 738.714 338.739C737.278 340.175 736.116 341.884 735.227 343.867C734.407 345.85 733.997 347.969 733.997 350.225C733.997 352.482 734.407 354.601 735.227 356.584C736.116 358.567 737.278 360.31 738.714 361.814C740.218 363.25 741.961 364.412 743.944 365.301C745.928 366.121 748.047 366.532 750.303 366.532C752.559 366.532 754.678 366.121 756.661 365.301C758.645 364.412 760.353 363.25 761.789 361.814C763.225 360.31 764.353 358.567 765.173 356.584C766.062 354.601 766.507 352.482 766.507 350.225Z" fill="#2540BB"/>
<path d="M669.774 311.767C675.106 311.767 680.097 312.793 684.747 314.844C689.464 316.826 693.566 319.561 697.053 323.048C700.54 326.535 703.275 330.637 705.258 335.355C707.309 340.004 708.334 344.995 708.334 350.328C708.334 355.661 707.309 360.686 705.258 365.404C703.275 370.053 700.54 374.121 697.053 377.608C693.566 381.095 689.464 383.864 684.747 385.915C680.097 387.897 675.106 388.889 669.774 388.889C664.441 388.889 659.415 387.897 654.698 385.915C650.048 383.864 645.981 381.095 642.494 377.608C639.007 374.121 636.238 370.053 634.187 365.404C632.204 360.686 631.213 355.661 631.213 350.328C631.213 344.995 632.204 340.004 634.187 335.355C636.238 330.637 639.007 326.535 642.494 323.048C645.981 319.561 650.048 316.826 654.698 314.844C659.415 312.793 664.441 311.767 669.774 311.767ZM686.285 350.225C686.285 347.969 685.84 345.85 684.952 343.867C684.131 341.884 683.003 340.175 681.567 338.739C680.132 337.303 678.423 336.175 676.44 335.355C674.456 334.466 672.337 334.022 670.081 334.022C667.825 334.022 665.706 334.466 663.723 335.355C661.74 336.175 659.996 337.303 658.492 338.739C657.057 340.175 655.894 341.884 655.006 343.867C654.185 345.85 653.775 347.969 653.775 350.225C653.775 352.482 654.185 354.601 655.006 356.584C655.894 358.567 657.057 360.31 658.492 361.814C659.996 363.25 661.74 364.412 663.723 365.301C665.706 366.121 667.825 366.532 670.081 366.532C672.337 366.532 674.456 366.121 676.44 365.301C678.423 364.412 680.132 363.25 681.567 361.814C683.003 360.31 684.131 358.567 684.952 356.584C685.84 354.601 686.285 352.482 686.285 350.225Z" fill="#2540BB"/>
<path d="M627.327 343.149V387.863L607.124 387.761V385.607C603.91 386.838 600.595 387.624 597.176 387.966C593.757 388.376 590.339 388.308 586.92 387.761C583.571 387.214 580.289 386.222 577.075 384.787C573.931 383.282 570.99 381.3 568.255 378.838C564.358 375.42 561.349 371.454 559.23 366.942C557.111 362.361 555.881 357.678 555.538 352.892C555.265 348.037 555.914 343.252 557.487 338.534C559.06 333.748 561.555 329.407 564.974 325.509C568.255 321.817 572.255 318.912 576.973 316.792C581.758 314.673 586.75 313.374 591.946 312.895C597.211 312.417 602.372 312.793 607.432 314.023C612.559 315.254 617.072 317.373 620.969 320.382L606.919 336.175C604.457 334.671 601.894 333.748 599.227 333.406C596.561 332.996 594.031 333.03 591.638 333.509C589.245 333.919 587.058 334.671 585.074 335.765C583.161 336.791 581.725 338.021 580.767 339.457C579.469 341.303 578.476 343.286 577.793 345.405C577.178 347.525 576.905 349.644 576.973 351.764C577.04 353.883 577.485 355.934 578.306 357.917C579.194 359.831 580.527 361.541 582.305 363.045C584.014 364.617 585.895 365.745 587.946 366.429C590.065 367.113 592.185 367.386 594.304 367.25C596.493 367.044 598.577 366.497 600.56 365.609C602.611 364.651 604.423 363.284 605.996 361.506L606.406 360.994H596.868L600.663 343.046L627.327 343.149Z" fill="#2540BB"/>
<path d="M557.753 313.203L537.857 354.328V387.556H515.5V354.122L496.014 313.203H518.576L526.883 332.381L534.985 313.203H557.753Z" fill="#2540BB"/>
<path d="M493.336 313.203V334.739H478.568V387.556H457.031V334.739H442.161V313.203H493.336Z" fill="#2540BB"/>
<path d="M438.254 313.203V334.739H423.486V387.556H401.949V334.739H387.078V313.203H438.254Z" fill="#2540BB"/>
<path d="M382.894 366.019V387.556H331.308V313.203H382.894V334.739H352.845V341.406H377.971V359.455H352.845V366.019H382.894Z" fill="#2540BB"/>
<path d="M329.149 387.556H305.972C302.895 383.043 300.331 379.454 298.28 376.787C296.297 374.052 294.657 372.001 293.357 370.634C292.127 369.267 291.204 368.446 290.588 368.173C289.973 367.899 289.529 367.933 289.255 368.275C289.05 368.617 288.948 369.13 288.948 369.813C288.948 370.497 288.948 371.078 288.948 371.557V387.556H267.411V313.203H295.614C298.895 313.203 302.109 313.989 305.254 315.562C308.467 317.134 311.236 319.117 313.561 321.51C316.296 324.245 318.313 327.355 319.612 330.842C320.979 334.329 321.629 337.885 321.56 341.508C321.492 345.132 320.706 348.721 319.201 352.276C317.766 355.763 315.68 358.908 312.946 361.712L329.149 387.556ZM300.741 340.585C300.741 338.602 300.058 336.927 298.69 335.56C297.323 334.193 295.648 333.509 293.665 333.509H288.742V347.764H293.665C295.648 347.764 297.323 347.08 298.69 345.713C300.058 344.277 300.741 342.568 300.741 340.585Z" fill="#2540BB"/>
<path d="M261.166 347.251C260.551 351.285 259.218 354.977 257.167 358.327C255.115 361.609 252.552 364.378 249.475 366.634C246.467 368.822 243.082 370.429 239.322 371.454C235.562 372.412 231.664 372.582 227.631 371.967V387.556H206.094V313.203H227.631C232.827 313.203 237.647 313.989 242.091 315.562C246.535 317.066 250.295 319.288 253.372 322.228C256.449 325.099 258.705 328.655 260.141 332.893C261.645 337.132 261.987 341.918 261.166 347.251ZM239.63 342.739C239.63 340.756 238.946 339.081 237.578 337.714C236.211 336.346 234.536 335.662 232.553 335.662H227.631V349.918H232.553C234.536 349.918 236.211 349.234 237.578 347.867C238.946 346.431 239.63 344.722 239.63 342.739Z" fill="#2540BB"/>
</g>
<defs>
<clipPath id="clip0_1_782">
<rect width="1000" height="831.475" fill="white"/>
</clipPath>
</defs>
</svg>
